<?xml version="1.0" encoding="utf-8"?>
<svg version="1.1" width="30px" height="28px" xmlns="http://www.w3.org/2000/svg">
    <g transform="matrix(1 0 0 1 -597 -252 )">
        <path d="M 24.9688538648649 10.8870186316046  C 24.9678159074628 11.2358951385918  25.2472026737314 11.51959986111  25.5929638108108 11.5207742722182  C 25.9380830419695 11.5197324652795  26.2173111166907 11.2371446592898  26.2173111166907 10.888914687467  C 26.2173111166907 10.8882826677796  26.2173101768918 10.8876506484465  26.2173082972973 10.8870186316046  L 26.2173082972973 3.28195086243  C 26.2173082972973 1.53545471439007  24.8178103513513 0.113172632091552  23.096054972973 0.113172632091552  L 3.12101878378378 0.113172632091552  C 1.39949794594595 0.113172632091552  0 1.53545471439007  0 3.28195086243  L 0 24.8298795149744  C 0 26.5763756630144  1.39949794594595 27.9986577453129  3.12101878378378 28  L 23.096054972973 28  C 24.8175758108108 27.9986577453129  26.2170737567568 26.5763756630144  26.2170737567568 24.8298795149744  L 26.2170737567568 21.0273456167519  C 26.2181117141588 20.6784691097647  25.9387249478903 20.3947643872464  25.5929638108108 20.3935899761383  C 25.2478445796521 20.394631783077  24.968616504931 20.6772195890667  24.968616504931 21.0254495608894  C 24.968616504931 21.0260815805769  24.9686174447298 21.02671359991  24.9686193243243 21.0273456167519  L 24.9686193243243 24.8298795149744  C 24.9686193243243 25.8782505108352  24.1284983783784 26.7311464640857  23.096054972973 26.7311464368152  L 3.12101878378378 26.7311464368152  C 2.08857535135135 26.7311464368152  1.24845443243243 25.8780138300463  1.24845443243243 24.8298795149744  L 1.24845443243243 7  L 24.9688538648649 7  L 24.9688538648649 10.8870186316046  Z M 24.9688538648649 5.18321781154127  L 1.24845443243243 5.18321781154127  L 1.24845443243243 3.28195086243  C 1.24845443243243 2.23357986656927  2.08857537837838 1.38068391331872  3.12101878378378 1.38068391331872  L 23.096054972973 1.38068391331872  C 24.1284984054054 1.38068391331872  24.9688538648649 2.23381652008766  24.9688538648649 3.28195086243  L 24.9688538648649 5.18321781154127  Z M 2.49690883783784 3.28195086243  C 2.49587088043576 3.63082736941718  2.77525764670433 3.91453209193547  3.12101878378378 3.91570650304358  C 3.46613801494251 3.9146646961049  3.74536608966364 3.63207689011522  3.74536608966364 3.28384691829244  C 3.74536608966364 3.28321489860452  3.74536514986479 3.28258287927242  3.74536327027027 3.28195086243  C 3.74536514986479 3.2813188455877  3.74536608966364 3.28068682625536  3.74536608966364 3.28005480656756  C 3.74536608966364 2.93182483474478  3.46613801494251 2.6492370287551  3.12101878378378 2.64819522181641  C 2.77525764670433 2.64936963292453  2.49587088043576 2.93307435544282  2.49690883783784 3.28195086243  Z M 4.99381767567568 3.28195086243  C 4.99277971827359 3.63082736941718  5.27216648454217 3.91453209193547  5.61792762162162 3.91570650304358  C 5.96304685278034 3.9146646961049  6.24227492750148 3.63207689011522  6.24227492750148 3.28384691829244  C 6.24227492750148 3.28321489860452  6.24227398770263 3.28258287927242  6.24227210810811 3.28195086243  C 6.24227398770263 3.2813188455877  6.24227492750148 3.28068682625536  6.24227492750148 3.28005480656756  C 6.24227492750148 2.93182483474478  5.96304685278034 2.6492370287551  5.61792762162162 2.64819522181641  C 5.27216648454217 2.64936963292453  4.99277971827359 2.93307435544282  4.99381767567568 3.28195086243  Z M 7.49072651351351 3.28195086243  C 7.48968855611143 3.63082736941718  7.76907532238001 3.91453209193547  8.11483645945946 3.91570650304358  C 8.45995569061818 3.9146646961049  8.73918376533932 3.63207689011522  8.73918376533932 3.28384691829244  C 8.73918376533932 3.28321489860452  8.73918282554047 3.28258287927242  8.73918094594594 3.28195086243  C 8.73918282554047 3.2813188455877  8.73918376533932 3.28068682625536  8.73918376533932 3.28005480656756  C 8.73918376533932 2.93182483474478  8.45995569061818 2.6492370287551  8.11483645945946 2.64819522181641  C 7.76907532238001 2.64936963292453  7.48968855611143 2.93307435544282  7.49072651351351 3.28195086243  Z M 6.24226853839392 13.4201443884221  C 6.24226853839392 13.0720064798007  6.52135447311101 12.7894570570691  6.86638205405406 12.7882855534453  C 7.21150156770812 12.7893269604214  7.49073008071184 13.0719148847064  7.49073008071184 13.4201451403719  C 7.49073008071184 13.4208560533826  7.49072889164403 13.4215669658868  7.49072651351351 13.4222778748478  L 7.49072651351351 18.492323027027  C 7.49072839316226 18.4929550529864  7.49072933298823 18.4935870814363  7.49072933298823 18.4942191102413  C 7.49072933298823 18.8424490714529  7.21150127465191 19.1250368730202  6.86638205405406 19.1260786949111  C 6.52062090638897 19.1249042838123  6.24123413575163 18.8411995446499  6.24227210810811 18.492323027027  L 6.24227210810811 16.5910561051863  L 3.74536327027027 16.5910561051863  L 3.74536327027027 18.492323027027  C 3.74536514991886 18.4929550529594  3.74536608974474 18.4935870813817  3.74536608974474 18.4942191101597  C 3.74536608974474 18.8424490820144  3.46613801497429 19.1250368880174  3.12101878378378 19.1260786949111  C 2.7752576361187 19.1249042838123  2.49587086548136 18.8411995446499  2.49690883783784 18.492323027027  L 2.49690883783784 13.4222778748478  C 2.49690645803008 13.4215667152396  2.49690526812365 13.4208555520843  2.49690526812365 13.4201443884221  C 2.49690526812365 13.0720064798007  2.77599120284074 12.7894570570691  3.12101878378378 12.7882855534453  C 3.46613830803046 12.7893269454241  3.74536683746832 13.0719148741448  3.74536683746832 13.4201451404534  C 3.74536683746832 13.4208560534369  3.74536564840061 13.421566965914  3.74536327027027 13.4222778748478  L 3.74536327027027 15.3235447966886  L 6.24227210810811 15.3235447966886  L 6.24227210810811 13.4222778748478  C 6.24226972830035 13.4215667152396  6.24226853839392 13.4208555520843  6.24226853839392 13.4201443884221  Z M 9.36329089189189 12.7882855534453  L 11.8601997297297 12.7882855534453  C 12.2053189609202 12.789327360339  12.4845470356907 13.071915166342  12.4845470356907 13.4201451381967  C 12.4845470356907 13.4207771669745  12.4845460958648 13.4214091953973  12.4845442162162 13.4220412213294  C 12.4845460958107 13.4226732381717  12.4845470356096 13.4233052575041  12.4845470356096 13.4239372771919  C 12.4845470356096 13.7721672490147  12.2053189608885 14.0547550550043  11.8601997297297 14.055796861943  L 11.2358552432432 14.055796861943  L 11.2358552432432 18.492323027027  C 11.236893401703 18.8411074640414  10.9576492684739 19.1247739631917  10.6119798378378 19.1260786949111  C 10.2668606066473 19.1250368880175  9.98763253187688 18.8424490820145  9.98763253187688 18.4942191101597  C 9.98763253187688 18.4935870813815  9.98763347170276 18.4929550529597  9.98763535135135 18.492323027027  L 9.98763535135135 14.0560335154614  L 9.36329089189189 14.0560335154614  C 9.01817166073317 14.0549917085227  8.73894358601204 13.772403902533  8.73894358601204 13.4241739307103  C 8.73894358601204 13.4235419110223  8.73894452581088 13.4229098916902  8.7389464054054 13.4222778748478  C 8.73894402727507 13.421566965914  8.73894283820736 13.4208560534369  8.73894283820736 13.4201451404534  C 8.73894283820736 13.0719148741448  9.01817136764521 12.7893269454241  9.36329089189189 12.7882855534453  Z M 14.3571085675676 12.7882855534453  L 16.8540174054054 12.7882855534453  C 17.1990449863484 12.7894570570691  17.4781309210655 13.0720064798007  17.4781309210655 13.4201443884221  C 17.4781309210655 13.420855552084  17.4781297311591 13.4215667152399  17.4781273513514 13.4222778748478  C 17.4791653087534 13.771154381835  17.1997785424849 14.0548591043533  16.8540174054054 14.0560335154614  L 16.2296729189189 14.0560335154614  L 16.2296729189189 18.492323027027  C 16.2307108912941 18.8411995340367  15.9513241370966 19.1249042687909  15.605563 19.1260786949111  C 15.2604437688095 19.1250368880174  14.981215694039 18.8424490820145  14.981215694039 18.4942191101597  C 14.981215694039 18.4935870813819  14.9812166338649 18.4929550529592  14.9812185135135 18.492323027027  L 14.9812185135135 14.0560335154614  L 14.3571085675676 14.0560335154614  C 14.0119893364088 14.0549917085227  13.7327612616877 13.772403902533  13.7327612616877 13.4241739307103  C 13.7327612616877 13.4235419110223  13.7327622014866 13.4229098916902  13.7327640810811 13.4222778748478  C 13.7327617029507 13.4215669659142  13.732760513883 13.4208560534367  13.732760513883 13.4201451404534  C 13.732760513883 13.0719148741448  14.0119890433209 12.7893269454241  14.3571085675676 12.7882855534453  Z M 19.3509262432432 12.7882855534453  L 20.5991461351351 12.7882855534453  C 21.6318241081081 12.7882855534453  22.471945027027 13.6414181602143  22.471945027027 14.6895525025566  C 22.471945027027 15.7379234984173  21.6318240810811 16.5910561051863  20.5991461351351 16.5910561051863  L 19.9752707297297 16.5910561051863  L 19.9752707297297 18.492323027027  C 19.9752726093783 18.4929550529596  19.9752735492042 18.4935870813815  19.9752735492042 18.4942191101597  C 19.9752735492042 18.8424490820144  19.6960454744337 19.1250368880174  19.3509262432432 19.1260786949111  C 19.0058070120527 19.1250368880174  18.7265789372823 18.8424490820144  18.7265789372823 18.4942191101597  C 18.7265789372823 18.4935870813819  18.7265798771082 18.4929550529592  18.7265817567568 18.492323027027  L 18.7265817567568 13.4222778748478  C 18.7265793786264 13.4215669659138  18.7265781895587 13.4208560534371  18.7265781895587 13.4201451404534  C 18.7265781895587 13.0719148741448  19.0058067189966 12.7893269454241  19.3509262432432 12.7882855534453  Z M 19.9750361891892 15.3233081431702  L 20.5991461351351 15.3233081431702  C 20.9425121351351 15.3233081431702  21.2234906216216 15.0393250392014  21.2234906216216 14.6895525025566  C 21.2240111412724 14.3407984730729  20.9447832026347 14.0573615484924  20.5991461351351 14.055796861943  L 19.9750361891892 14.055796861943  L 19.9750361891892 15.3233081431702  Z M 29.4893705945946 12.8074544338934  C 29.7678366787868 12.8783223708733  29.9629727341648 13.1310435853132  29.9629727341648 13.4208178005026  C 29.9629727341648 13.4730174709758  29.9565692668946 13.5250164417288  29.9439083783784 13.5756287548089  L 28.695453972973 18.6456739069881  C 28.6276522923793 18.927517211105  28.3775330030874 19.1259591861818  28.090095088378 19.1259591861818  C 28.0391000216595 19.1259591861818  27.9882979002026 19.1196410030451  27.9388291351351 19.1071464679815  C 27.6604435059418 19.036218013424  27.4653917732866 18.7835353717747  27.4653917732866 18.4938250602766  C 27.4653917732866 18.4415292332064  27.471818853149 18.3894352197976  27.4845258918919 18.3387354935476  L 28.7327457567568 13.2686903413684  C 28.8153037027027 12.9279106111517  29.1497572162162 12.7187097190163  29.4893705945946 12.807217780375  Z M 26.9924617567568 12.8074544338934  C 27.270927840949 12.8783223708733  27.4660638963269 13.1310435853132  27.4660638963269 13.4208178005026  C 27.4660638963269 13.4730174709758  27.4596604290568 13.5250164417288  27.4469995405405 13.5756287548089  L 26.1985451081081 18.6456739069881  C 26.1307434251494 18.9275172079822  25.8806241373209 19.1259591797465  25.5931862250613 19.1259591797465  C 25.5421911671308 19.1259591797465  25.4913890543619 19.1196409987873  25.4419202972973 19.1071464679815  C 25.163534668104 19.036218013424  24.9684829354488 18.7835353717747  24.9684829354488 18.4938250602766  C 24.9684829354488 18.4415292332064  24.9749100153111 18.3894352197976  24.9876170540541 18.3387354935476  L 26.2360714594595 13.2686903413684  C 26.3181603243243 12.9279106111517  26.6516756756757 12.7187097190163  26.9924617567568 12.807217780375  Z M 24.9688574319717 14.6916852096808  C 24.9688574319717 15.0399154759535  24.6896289025893 15.3225034046592  24.3445093783784 15.3235447966886  C 23.9994818080685 15.3223732780249  23.7203958898362 15.0398238597471  23.7203958898362 14.6916859618039  C 23.7203958898362 14.6909748072012  23.7203970797123 14.6902636531055  23.7203994594595 14.6895525025566  C 23.7193615020387 14.3406760061826  23.9987482518674 14.0569712880725  24.3445093783784 14.055796861943  C 24.6896286095371 14.0568386688817  24.9688566842582 14.3394264748714  24.9688566842582 14.6876564466942  C 24.9688566842582 14.6882884663826  24.9688557444594 14.6889204857137  24.9688538648649 14.6895525025566  C 24.9688562429344 14.6902634023996  24.9688574319717 14.6909743057883  24.9688574319717 14.6916852096808  Z M 24.9688566842582 17.2267078016623  C 24.9688566842582 17.5749377734851  24.6896286095371 17.8575255794748  24.3445093783784 17.8585673864134  C 23.9987482518674 17.857392960284  23.7193615020387 17.5736882421738  23.7203994594595 17.2248117457999  C 23.7193615020387 16.8759352494259  23.9987482518674 16.5922305313157  24.3445093783784 16.5910561051863  C 24.6896286095371 16.592097912125  24.9688566842582 16.8746857181146  24.9688566842582 17.2229156899374  C 24.9688566842582 17.2235477096258  24.9688557444594 17.2241797289569  24.9688538648649 17.2248117457999  C 24.9688557444594 17.2254437626417  24.9688566842582 17.226075781975  24.9688566842582 17.2267078016623  Z "
              fill-rule="nonzero" fill="#262626" stroke="none" transform="matrix(1 0 0 1 597 252 )"/>
    </g>
</svg>