<?xml version="1.0" encoding="utf-8"?>
<svg version="1.1" width="28px" height="28px" xmlns="http://www.w3.org/2000/svg">
    <g transform="matrix(1 0 0 1 -482 -252 )">
        <path d="M 25.9949212770601 14.0497712823735  C 25.9949212770601 7.45264720417155  20.6468955385721 2.10462146568356  14.0497714603701 2.10462146568356  C 7.45264738216816 2.10462146568356  2.10462164368017 7.45264720417155  2.10462164368017 14.0497712823735  C 2.10462174198498 20.6468954690601  7.45264745168016 25.9949210990635  14.0497714603701 25.9949210990635  C 20.6468955385721 25.9949210990635  25.9949212770601 20.6468953605755  25.9949212770601 14.0497712823735  Z M 14.0497714603701 0.113763320530724  C 21.745860845845 0.113763320530724  27.9857796002095 6.35368207489525  27.9857795696578 14.0497714603701  C 27.9857795696578 21.745860845845  21.7458608152933 27.9857796002095  14.0497714603701 27.9857795696578  C 6.35368207489525 27.9857795696578  0.113763320530728 21.7458608152933  0.113763320530728 14.0497714603701  C 0.113763320530728 6.35368207489525  6.35368207489525 0.113763320530724  14.0497714603701 0.113763320530724  Z M 22.2819705350908 23.6954799362779  L 5.35967495635475 5.77775521124302  C 5.1842054385396 5.59211354531835  5.08643969064169 5.34635455154007  5.08643969064169 5.09090909785265  C 5.08643969064169 4.5386803753713  5.53410952167018 4.09101054434281  6.08633824415154 4.09101054434281  C 6.36129929008134 4.09101054434281  6.62412644550309 4.20423861533  6.81300153194832 4.40406298446229  L 23.7352971106844 22.3217877094972  C 23.9107666284995 22.5074293754219  24.0085323763974 22.7531883692002  24.0085323763974 23.0086338228876  C 24.0085323763974 23.5608625453689  23.5608625453689 24.0085323763974  23.0086338228876 24.0085323763974  C 22.7336727769578 24.0085323763974  22.470845621536 23.8953043054102  22.2819705350908 23.6954799362779  Z "
              fill-rule="nonzero" fill="#000000" stroke="none" transform="matrix(1 0 0 1 482 252 )"/>
    </g>
</svg>